<svg id="Layer_1" data-name="Layer 1" xmlns="http://www.w3.org/2000/svg" viewBox="0 0 333.08 105.53"><defs><style>.cls-1{fill:#f2f2f2;}.cls-2{fill:#e5e5e5;}</style></defs><title>indaba-logo-white</title><g id="Layer_1-2" data-name="Layer 1"><path class="cls-1" d="M107.8,25.84h7.69a1,1,0,0,1,1.13.82,1.06,1.06,0,0,1,0,.34V78.56a1,1,0,0,1-.83,1.15.94.94,0,0,1-.28,0H107.8a1,1,0,0,1-1.11-.86,1.06,1.06,0,0,1,0-.29V27a1,1,0,0,1,.81-1.17A.94.94,0,0,1,107.8,25.84Z"/><path class="cls-1" d="M162.57,27V78.56a1,1,0,0,1-.83,1.15.94.94,0,0,1-.28,0h-9.69a1.35,1.35,0,0,1-1.32-.84L136,43.39V78.54a1,1,0,0,1-.83,1.15.94.94,0,0,1-.28,0h-7.53a1,1,0,0,1-1.11-.86,1.06,1.06,0,0,1,0-.29V27a1,1,0,0,1,.83-1.15.94.94,0,0,1,.28,0h9.74a1.35,1.35,0,0,1,1.32.85l14.39,35.39V27a1,1,0,0,1,.83-1.15.94.94,0,0,1,.28,0h7.54a1,1,0,0,1,1.13.83A1.06,1.06,0,0,1,162.57,27Z"/><path class="cls-1" d="M207.43,40.84V64.47c0,9.08-4.65,15.16-14.64,15.16h-19.5a1,1,0,0,1-1.11-.86,1.06,1.06,0,0,1,0-.29V27a1,1,0,0,1,.83-1.15.94.94,0,0,1,.28,0h19.52C202.77,25.84,207.43,31.85,207.43,40.84Zm-9.76,0c0-4.69-1.44-6-4.88-6H181.93V70.62h10.87c3.4,0,4.88-1.23,4.88-6.08Z"/><path class="cls-1" d="M247.71,79.7h-7.9c-.73,0-1.11-.39-1.32-1.23L236.33,69H223.84l-2.14,9.5c-.22.84-.59,1.23-1.32,1.23h-7.83c-.73,0-1.11-.39-.89-1.23l14-51.4A1.46,1.46,0,0,1,227,25.84h6.16a1.46,1.46,0,0,1,1.44,1.23l14,51.4C248.74,79.32,248.45,79.7,247.71,79.7ZM234.27,60.22,230,42.07l-4.15,18.09Z"/><path class="cls-1" d="M291.47,61v4.15c0,9.55-4.88,14.54-15.44,14.54H256.74a1,1,0,0,1-1.11-.86,1.06,1.06,0,0,1,0-.29V27a1,1,0,0,1,.83-1.15.94.94,0,0,1,.28,0h19c9.53,0,13.89,4.23,13.89,15a14.49,14.49,0,0,1-3.17,9.62A12.8,12.8,0,0,1,291.47,61ZM275.72,34.92H265.37V47.15h10.35c3,0,4.15-.76,4.15-6.38C279.85,35.39,278.67,34.92,275.72,34.92Zm6,26.09c0-4.39-1.7-5.62-5.76-5.62H265.32V70.62H276c4,0,5.76-1.15,5.76-5.47Z"/><path class="cls-2" d="M332.11,79.7h-7.9c-.73,0-1.11-.39-1.32-1.23L320.73,69H308.23L306,78.44c-.22.84-.59,1.23-1.32,1.23h-7.83c-.73,0-1.11-.39-.89-1.23l14-51.4a1.46,1.46,0,0,1,1.44-1.23h6.28A1.46,1.46,0,0,1,319.09,27l14,51.4C333.15,79.32,332.85,79.7,332.11,79.7ZM318.65,60.22l-4.22-18.09-4.13,18.09Z"/><path class="cls-1" d="M66.35,48.16q-.22.72-.37,1.5h0c-.12.48-.23.94-.32,1.5-.36,1.68-.66,3.36-.86,5,0,.51-.14,1-.17,1.5v.25a6.25,6.25,0,0,1-.09,1.27,49.89,49.89,0,0,1-7.2-2.59c.23-.39.45-.79.65-1.2V55.3c.24-.43.46-.88.68-1.33q1.11-2.28,2-4.66.28-.7.52-1.39a.22.22,0,0,1,0-.09c.16-.43.3-.88.42-1.33A39.78,39.78,0,0,0,66.35,48.16Z"/><path class="cls-1" d="M97.77,52.49c0,1.23,0,2.34-.1,3.39a1.5,1.5,0,0,1-.89,1.29A49.31,49.31,0,0,1,78.07,61c-1,0-2,0-3-.09a7.57,7.57,0,0,1,.1-1.5h0a12.56,12.56,0,0,1,.14-1.5,38.5,38.5,0,0,1,.89-5c.09-.39.19-.78.29-1.15h0l.09-.31.43-1.5H78a39,39,0,0,0,17.4-4.2,1.39,1.39,0,0,1,1.32,0,1.5,1.5,0,0,1,.72,1.14A50.93,50.93,0,0,1,97.77,52.49Z"/><path class="cls-1" d="M52.23,40.5c-.13.52-.29,1-.43,1.5a1.61,1.61,0,0,1-.14.49c-.06.16-.22.67-.33,1a39.58,39.58,0,0,1-1.94,4.87c-.22.45-.43.9-.66,1.33a.72.72,0,0,1,0,.15c-.2.39-.42.78-.63,1.15A54.29,54.29,0,0,1,26.26,7.55V5.7a1.7,1.7,0,0,1,.86-1.5,48.94,48.94,0,0,1,8.16-2.67A1.44,1.44,0,0,1,37,2.65,1.56,1.56,0,0,1,37,3a40.21,40.21,0,0,0-.2,4.5A43.34,43.34,0,0,0,52.23,40.5Z"/><path class="cls-1" d="M31.21,69.27v1.65a39,39,0,0,1-.56,5.81,7.57,7.57,0,0,1-.13.82,4.13,4.13,0,0,1-.19.91q-.17.88-.39,1.75A49.19,49.19,0,0,1,13,83.31a50.89,50.89,0,0,1-7-.45,1.43,1.43,0,0,1-1-.64A52.79,52.79,0,0,1,.09,72.67a1.55,1.55,0,0,1,.26-1.5,1.4,1.4,0,0,1,1.44-.45,38.88,38.88,0,0,0,11.14,1.5A39.55,39.55,0,0,0,31,67.73v1A3.73,3.73,0,0,1,31.21,69.27Z"/><path class="cls-1" d="M57.31,56.55A53.31,53.31,0,0,1,41.68,74V69.34c0-1.81-.13-3.64-.3-5.47l-.09-.79a6,6,0,0,0-.13-1q-.12-.91-.27-1.8a41.45,41.45,0,0,0,7-9.19l1.11.79H49c.39.28.79.55,1.19.79a46.29,46.29,0,0,0,4.32,2.5q.65.36,1.3.66h.1Z"/><path class="cls-1" d="M61.69,46.4c-.13.45-.27.9-.42,1.33a.22.22,0,0,0,0,.09l-.52,1.39q-.89,2.38-2,4.66c-.23.45-.45.9-.68,1.33v.12l-.65,1.2L56.21,56h-.1l-1.3-.66a46.29,46.29,0,0,1-4.32-2.5c-.4-.25-.81-.52-1.19-.79h-.09l-1.11-.79a12.82,12.82,0,0,0,.63-1.15.72.72,0,0,0,0-.15c.24-.43.46-.88.66-1.33a39.58,39.58,0,0,0,1.94-4.87c.12-.33.23-.66.33-1s.1-.33.14-.49c.16-.51.32-1,.43-1.5.4.34.81.67,1.22,1l.4.31c.27.21.55.42.83.61A38.33,38.33,0,0,0,59,45.32l1.3.66h.16A12.4,12.4,0,0,1,61.69,46.4Z"/><path class="cls-1" d="M41.87,69.34V74l-.58.4-1,.63c-.52.34-1,.66-1.55,1a49.81,49.81,0,0,1-5.63,2.88l-.72.31-.91.37c-.55.22-1.08.42-1.63.63q.22-.88.39-1.75a5.16,5.16,0,0,1,.19-.91,7.57,7.57,0,0,0,.13-.82,39,39,0,0,0,.56-5.81V69.28a3.78,3.78,0,0,0,0-.57v-1l.81-.43.6-.34c.47-.25.94-.52,1.44-.82a40.27,40.27,0,0,0,4.59-3.4l.6-.51.71-.64a16.08,16.08,0,0,0,1.25-1.2q.16.87.27,1.8a8,8,0,0,0,.13,1l.09.79C41.78,65.7,41.86,67.47,41.87,69.34Z"/><path class="cls-1" d="M64.25,29.33A55.53,55.53,0,0,1,61.68,46.4q-.59-.24-1.17-.52h-.16l-1.3-.66a38.33,38.33,0,0,1-4.32-2.71c-.29-.19-.56-.4-.83-.61l-.4-.31c-.42-.31-.82-.64-1.22-1a44,44,0,0,0-8.1-38.08A1.55,1.55,0,0,1,44,1a1.45,1.45,0,0,1,1.27-1A48.78,48.78,0,0,1,55.56.73a1.44,1.44,0,0,1,1,.7A55,55,0,0,1,64.25,29.33Z"/><path class="cls-1" d="M41.68,74a54.51,54.51,0,0,1-10.16,27.9,1.42,1.42,0,0,1-1.14.6,1.39,1.39,0,0,1-.49-.09,47,47,0,0,1-7.53-3.58,1.5,1.5,0,0,1-.69-1A1.54,1.54,0,0,1,22,96.62a43.22,43.22,0,0,0,7.94-16.35c.55-.19,1.08-.39,1.63-.63l.91-.37.72-.31a49.87,49.87,0,0,0,5.44-2.86c.52-.3,1-.61,1.55-1l1-.63Z"/><path class="cls-1" d="M41.07,60.29c-.4.4-.83.81-1.25,1.2l-.71.64-.6.51A40.22,40.22,0,0,1,33.91,66c-.46.28-.92.55-1.44.82l-.6.34-.81.43C30.2,50.21,19.29,35.13,3.5,29.47a1.47,1.47,0,0,1-.86-.88,1.55,1.55,0,0,1,.07-1.27,50.34,50.34,0,0,1,4.53-7.16,1.4,1.4,0,0,1,1.64-.46C25.7,26.42,37.91,41.82,41.07,60.29Z"/><path class="cls-1" d="M68.74,84.61a42.16,42.16,0,0,0-17.07,19.9,1.44,1.44,0,0,1-1.22.91c-1,0-2,.1-3,.1a49.59,49.59,0,0,1-5.54-.27,1.44,1.44,0,0,1-1.07-.7,1.55,1.55,0,0,1-.14-1.3A53.75,53.75,0,0,1,65.4,73.84c.07.37.14.76.23,1.14l.09.37c.12.51.23,1,.37,1.5a47.28,47.28,0,0,0,1.6,5c.14.42.29.82.46,1.23l.07.18A8.43,8.43,0,0,0,68.74,84.61Z"/><path class="cls-1" d="M95,70a52.39,52.39,0,0,1-3.47,8.2,1.43,1.43,0,0,1-1.35.78H88.91a39.21,39.21,0,0,0-10.29,1.5c-.2-.46-.39-.93-.58-1.41a.55.55,0,0,1,0-.13c-.16-.42-.32-.84-.46-1.26a41.36,41.36,0,0,1-1.44-4.9c-.1-.45-.19-.88-.29-1.33a.34.34,0,0,1,0-.12c-.1-.49-.19-1-.26-1.5a49.55,49.55,0,0,1,13.27-1.9,38.87,38.87,0,0,1,5,.21,1.43,1.43,0,0,1,1.07.67A1.55,1.55,0,0,1,95,70Z"/><path class="cls-1" d="M78.59,80.34c-.47.12-.94.25-1.44.42H77l-1.24.43a35.11,35.11,0,0,0-4.53,2l-1.17.63-.13.07q-.62.34-1.25.73-.3-.69-.58-1.39L68,83c-.16-.4-.3-.81-.46-1.23a47.31,47.31,0,0,1-1.54-5c-.13-.49-.24-1-.37-1.5l0-.37c-.09-.37-.16-.76-.23-1.14.33-.19.66-.37,1-.54l.33-.16,1.35-.66a43.93,43.93,0,0,1,4.68-1.89L74,70.15h.17l1.44-.43a6.81,6.81,0,0,0,.26,1.5.34.34,0,0,0,0,.12c.09.45.17.88.29,1.33a41.36,41.36,0,0,0,1.44,4.9c.13.42.29.84.46,1.26A.55.55,0,0,0,78,79,11.37,11.37,0,0,0,78.59,80.34Z"/><path class="cls-1" d="M82.85,90.16a48.92,48.92,0,0,1-6.13,5.42,1.4,1.4,0,0,1-.83.27,1.42,1.42,0,0,1-1.15-.58,54.3,54.3,0,0,1-6-10.64q.62-.39,1.25-.73l.13-.07,1.17-.63a35.11,35.11,0,0,1,4.53-2L77,80.79h.14c.46-.15.92-.28,1.44-.42A41.44,41.44,0,0,0,83,88.24,1.54,1.54,0,0,1,82.85,90.16Z"/><path class="cls-1" d="M77,49.82c-.16.49-.3,1-.43,1.5l-.09.31h0a10.36,10.36,0,0,0-.29,1.15,38.5,38.5,0,0,0-.89,5c0,.49-.12,1-.14,1.5h0c0,.48-.09,1-.1,1.5a7.66,7.66,0,0,1-1.44-.09h0l-1.44-.13a45.6,45.6,0,0,1-4.89-.78l-1.44-.33h-.23l-1.18-.3a6.4,6.4,0,0,1,.09-1.27v-.25a13.27,13.27,0,0,1,.17-1.5c.2-1.68.5-3.36.86-5,.1-.48.22-.94.32-1.5h0q.17-.72.37-1.5a11.92,11.92,0,0,0,1.44.39h0a13.6,13.6,0,0,0,1.44.33,36,36,0,0,0,4.91.75l1.12.09h.35Z"/><path class="cls-1" d="M75.54,69.69l-1.44.43h-.17q-.6.18-1.21.42A43.93,43.93,0,0,0,68,72.43l-1.35.66-.33.16c-.35.16-.68.34-1,.54a57.33,57.33,0,0,1-1.07-10.49c0-1.39,0-2.77.13-4.18l1.18.3h.23l1.44.33a45.6,45.6,0,0,0,4.89.78l1.44.13h0c.47,0,.95.09,1.44.09v2.4A42.09,42.09,0,0,0,75.54,69.69Z"/><path class="cls-1" d="M91.06,29.18A42.84,42.84,0,0,0,77,49.82H75.23l-1.12-.09a36.06,36.06,0,0,1-5-.84l-1.44-.33h0l-1.44-.39A54,54,0,0,1,85,20a1.4,1.4,0,0,1,2,.27,52.57,52.57,0,0,1,4.45,7A1.54,1.54,0,0,1,91.06,29.18Z"/></g></svg>