<svg id="Layer_1" data-name="Layer 1" xmlns="http://www.w3.org/2000/svg" viewBox="0 0 97.75 105.55"><defs><style>.cls-1{fill:#ccc;}</style></defs><title>indaba-SM-white</title><path class="cls-1" d="M66.33,48.2A14.5,14.5,0,0,0,66,49.7h0c-.12.48-.23.94-.32,1.5-.36,1.68-.66,3.36-.86,5,0,.51-.14,1-.17,1.5v.25a6.25,6.25,0,0,1-.09,1.27,49.89,49.89,0,0,1-7.2-2.59c.23-.39.45-.79.65-1.2v-.12c.24-.43.46-.88.68-1.33q1.11-2.28,2-4.66.28-.7.52-1.39a.22.22,0,0,1,0-.09c.16-.43.3-.88.42-1.33A39.78,39.78,0,0,0,66.33,48.2Z"/><path class="cls-1" d="M41.85,69.39v4.69l-.58.4-1,.63c-.52.34-1,.66-1.55,1A49.81,49.81,0,0,1,33.09,79l-.72.31-.91.37-1.63.63q.22-.88.39-1.75a5.16,5.16,0,0,1,.19-.91,7.57,7.57,0,0,0,.13-.82A39,39,0,0,0,31.1,71V69.33a3.78,3.78,0,0,0,0-.57v-1l.81-.43.6-.34c.47-.25.94-.52,1.44-.82a40.27,40.27,0,0,0,4.59-3.4l.6-.51.71-.64a16.08,16.08,0,0,0,1.25-1.2q.16.87.27,1.8a8,8,0,0,0,.13,1l.09.79C41.76,65.75,41.84,67.54,41.85,69.39Z"/><path class="cls-1" d="M78.57,80.39c-.47.12-.94.25-1.44.42H77l-1.24.43a35.11,35.11,0,0,0-4.53,2L70,83.87l-.13.07q-.62.34-1.25.73-.3-.69-.58-1.39L68,83.1c-.16-.4-.3-.81-.46-1.23a47.31,47.31,0,0,1-1.54-5c-.13-.49-.24-1-.37-1.5V75c-.09-.37-.16-.76-.23-1.14.33-.19.66-.37,1-.54l.33-.16,1.32-.62a43.93,43.93,0,0,1,4.68-1.89L74,70.23h.17l1.44-.43a6.81,6.81,0,0,0,.26,1.5.34.34,0,0,0,0,.12c.09.45.17.88.29,1.33a41.36,41.36,0,0,0,1.44,4.9c.13.42.29.84.46,1.26A.55.55,0,0,0,78,79,11.37,11.37,0,0,0,78.57,80.39Z"/><path class="cls-1" d="M97.75,52.54c0,1.23,0,2.34-.1,3.39a1.5,1.5,0,0,1-.89,1.29A49.31,49.31,0,0,1,78,61c-1,0-2,0-3-.09a7.57,7.57,0,0,1,.1-1.5h0a12.56,12.56,0,0,1,.14-1.5,38.5,38.5,0,0,1,.89-5c.09-.39.19-.78.29-1.15h0l.09-.31L77,50h.95a39,39,0,0,0,17.4-4.2,1.39,1.39,0,0,1,1.32,0,1.5,1.5,0,0,1,.72,1.14A50.93,50.93,0,0,1,97.75,52.54Z"/><path class="cls-1" d="M52.21,40.54c-.13.52-.29,1-.43,1.5a1.61,1.61,0,0,1-.14.49c-.06.16-.22.67-.33,1a39.58,39.58,0,0,1-1.9,4.88c-.22.45-.43.9-.66,1.33a.72.72,0,0,1,0,.15c-.2.39-.42.78-.63,1.15A54.29,54.29,0,0,1,26.23,7.54V5.75a1.7,1.7,0,0,1,.86-1.5,48.94,48.94,0,0,1,8.17-2.71A1.44,1.44,0,0,1,37,2.62v0A1.56,1.56,0,0,1,37,3a40.21,40.21,0,0,0-.2,4.5A43.34,43.34,0,0,0,52.21,40.54Z"/><path class="cls-1" d="M31.19,69.31V71a39,39,0,0,1-.56,5.81,7.57,7.57,0,0,1-.13.82,4.13,4.13,0,0,1-.19.91q-.17.88-.39,1.75A49.19,49.19,0,0,1,13,83.34a50.89,50.89,0,0,1-7-.45,1.43,1.43,0,0,1-1-.64A52.79,52.79,0,0,1,.09,72.7a1.55,1.55,0,0,1,.26-1.5,1.4,1.4,0,0,1,1.44-.45,38.88,38.88,0,0,0,11.14,1.5A39.55,39.55,0,0,0,31,67.75v1A3.73,3.73,0,0,1,31.19,69.31Z"/><path class="cls-1" d="M57.29,56.59A53.31,53.31,0,0,1,41.66,74.08V69.39c0-1.81-.13-3.64-.3-5.47l-.09-.79a6,6,0,0,0-.13-1q-.12-.91-.27-1.8a41.45,41.45,0,0,0,7-9.19l1.11.79h.09c.39.28.79.55,1.19.79a46.29,46.29,0,0,0,4.32,2.5q.65.36,1.3.66H56Z"/><path class="cls-1" d="M61.67,46.45c-.13.45-.27.9-.42,1.33a.22.22,0,0,0,0,.09l-.52,1.39q-.89,2.38-2,4.66c-.23.45-.45.9-.68,1.33v.12l-.64,1.17L56.19,56h-.1l-1.3-.66a46.29,46.29,0,0,1-4.32-2.5c-.4-.25-.81-.52-1.19-.79h-.09l-1.11-.79a12.82,12.82,0,0,0,.63-1.15.72.72,0,0,0,0-.15c.24-.43.46-.88.66-1.33a39.58,39.58,0,0,0,1.94-4.87c.12-.33.23-.66.33-1s.1-.33.14-.49c.16-.51.32-1,.43-1.5.4.34.81.67,1.22,1l.4.31c.27.21.55.42.83.61A38.33,38.33,0,0,0,59,45.37l1.3.66h.16A12.4,12.4,0,0,1,61.67,46.45Z"/><path class="cls-1" d="M64.23,29.38a55.53,55.53,0,0,1-2.58,17.07q-.59-.24-1.17-.52h-.16L59,45.27a38.33,38.33,0,0,1-4.3-2.73c-.29-.19-.56-.4-.83-.61l-.4-.31c-.42-.31-.82-.64-1.22-1A44,44,0,0,0,44.15,2.54a1.55,1.55,0,0,1-.2-1.5,1.45,1.45,0,0,1,1.27-1A48.78,48.78,0,0,1,55.54.73a1.44,1.44,0,0,1,1,.7A55,55,0,0,1,64.23,29.38Z"/><path class="cls-1" d="M41.66,74.08A54.51,54.51,0,0,1,31.5,102a1.42,1.42,0,0,1-1.09.56,1.39,1.39,0,0,1-.49-.09,47,47,0,0,1-7.53-3.58,1.5,1.5,0,0,1-.69-1A1.54,1.54,0,0,1,22,96.66a43.22,43.22,0,0,0,7.94-16.35c.55-.19,1.08-.39,1.63-.63l.91-.37.72-.31a49.87,49.87,0,0,0,5.44-2.86c.52-.3,1-.61,1.55-1l1-.63Z"/><path class="cls-1" d="M41,60.34c-.4.4-.83.81-1.25,1.2l-.71.64-.6.51A40.22,40.22,0,0,1,33.89,66c-.46.28-.92.55-1.44.82l-.6.34-.81.43C30.17,50.26,19.27,35.18,3.48,29.54a1.47,1.47,0,0,1-.86-.88,1.55,1.55,0,0,1,.07-1.27,50.34,50.34,0,0,1,4.53-7.16,1.4,1.4,0,0,1,1.64-.46C25.68,26.46,37.89,41.87,41,60.34Z"/><path class="cls-1" d="M68.72,84.66a42.16,42.16,0,0,0-17.07,19.88,1.44,1.44,0,0,1-1.22.91c-1,0-2,.1-3,.1a49.59,49.59,0,0,1-5.54-.27,1.44,1.44,0,0,1-1.07-.7,1.55,1.55,0,0,1-.14-1.3,53.75,53.75,0,0,1,24.73-29.4c.07.37.14.76.23,1.14l.09.37c.12.51.23,1,.37,1.5a47.28,47.28,0,0,0,1.6,5c.14.42.29.82.46,1.23l.07.18A8.43,8.43,0,0,0,68.72,84.66Z"/><path class="cls-1" d="M95,70a52.39,52.39,0,0,1-3.47,8.2A1.43,1.43,0,0,1,90.2,79H88.89a39.21,39.21,0,0,0-10.29,1.5c-.2-.46-.39-.93-.58-1.41a.55.55,0,0,1,0-.13c-.16-.42-.32-.84-.46-1.26a41.36,41.36,0,0,1-1.44-4.9l-.29-1.33a.34.34,0,0,1,0-.12c-.1-.49-.19-1-.26-1.5a49.55,49.55,0,0,1,13.27-1.9,38.87,38.87,0,0,1,5,.21,1.43,1.43,0,0,1,1.07.67A1.55,1.55,0,0,1,95,70Z"/><path class="cls-1" d="M82.83,90.2a48.92,48.92,0,0,1-6.13,5.42,1.4,1.4,0,0,1-.83.27,1.42,1.42,0,0,1-1.15-.58,54.3,54.3,0,0,1-6-10.64q.62-.39,1.25-.73l.13-.07,1.17-.63a35.11,35.11,0,0,1,4.53-2L77,80.81h.14c.46-.15.92-.28,1.44-.42A41.44,41.44,0,0,0,83,88.26,1.54,1.54,0,0,1,82.83,90.2Z"/><path class="cls-1" d="M77,49.86c-.16.49-.3,1-.43,1.5l-.09.31h0a10.36,10.36,0,0,0-.29,1.15,38.5,38.5,0,0,0-.89,5c0,.49-.12,1-.14,1.5h0c0,.48-.09,1-.1,1.5a7.66,7.66,0,0,1-1.44-.09h0l-1.44-.13a45.6,45.6,0,0,1-4.89-.78l-1.45-.28h-.23l-1.2-.3A6.4,6.4,0,0,1,64.5,58v-.25a13.27,13.27,0,0,1,.17-1.5c.2-1.68.5-3.36.86-5,.1-.48.22-.94.32-1.5h0q.17-.72.37-1.5a11.92,11.92,0,0,0,1.44.39h0a13.6,13.6,0,0,0,1.44.33,36,36,0,0,0,4.91.75l1.12.09h.35Z"/><path class="cls-1" d="M75.51,69.73l-1.44.43H73.9q-.6.18-1.21.42A43.93,43.93,0,0,0,68,72.47l-1.35.66-.33.16a8.72,8.72,0,0,0-1,.54,57.33,57.33,0,0,1-1.07-10.49c0-1.39,0-2.77.13-4.18l1.18.3h.23l1.44.33a45.6,45.6,0,0,0,4.89.78l1.44.13h0c.47,0,.95.09,1.44.09v2.4A42.09,42.09,0,0,0,75.51,69.73Z"/><path class="cls-1" d="M91,29.23A42.84,42.84,0,0,0,77,49.86H75.21l-1.12-.09a36.06,36.06,0,0,1-5-.84l-1.44-.33h0l-1.44-.39A54,54,0,0,1,84.94,20.09a1.4,1.4,0,0,1,2,.23l0,0a52.57,52.57,0,0,1,4.45,7A1.54,1.54,0,0,1,91,29.23Z"/></svg>