<svg id="Layer_1" data-name="Layer 1" xmlns="http://www.w3.org/2000/svg" xmlns:xlink="http://www.w3.org/1999/xlink" viewBox="0 0 370 110.04"><defs><style>.cls-1{fill:none;}.cls-2{fill:#e5e5e5;}.cls-3{fill:#2e5d40;}.cls-4{clip-path:url(#clip-path);}</style><clipPath id="clip-path"><circle class="cls-1" cx="62.57" cy="55.02" r="53.89"/></clipPath></defs><title>indaba-log0-white-green</title><path class="cls-2" d="M126.37,28.09h7.69a1,1,0,0,1,1.13.82,1.06,1.06,0,0,1,0,.34V80.81a1,1,0,0,1-.83,1.15.94.94,0,0,1-.28,0h-7.71a1,1,0,0,1-1.11-.86,1.06,1.06,0,0,1,0-.29V29.26a1,1,0,0,1,.81-1.17A.94.94,0,0,1,126.37,28.09Z"/><path class="cls-2" d="M181.14,29.26V80.81a1,1,0,0,1-.83,1.15.94.94,0,0,1-.28,0h-9.69a1.35,1.35,0,0,1-1.32-.84L154.52,45.64V80.8a1,1,0,0,1-.83,1.15.94.94,0,0,1-.28,0h-7.53a1,1,0,0,1-1.11-.86,1.06,1.06,0,0,1,0-.29V29.26a1,1,0,0,1,.83-1.15.94.94,0,0,1,.28,0h9.74A1.35,1.35,0,0,1,157,29l14.39,35.39V29.26a1,1,0,0,1,.83-1.15.94.94,0,0,1,.28,0H180a1,1,0,0,1,1.13.83A1.06,1.06,0,0,1,181.14,29.26Z"/><path class="cls-2" d="M226,43.09V66.72c0,9.08-4.65,15.16-14.64,15.16h-19.5a1,1,0,0,1-1.11-.86,1.06,1.06,0,0,1,0-.29V29.26a1,1,0,0,1,.83-1.15.94.94,0,0,1,.28,0h19.52C221.33,28.09,226,34.1,226,43.09Zm-9.76,0c0-4.69-1.44-6-4.88-6H200.49V72.87h10.87c3.4,0,4.88-1.23,4.88-6.08Z"/><path class="cls-2" d="M266.28,81.95h-7.9c-.73,0-1.11-.39-1.32-1.23l-2.16-9.5H242.41l-2.14,9.5c-.22.84-.59,1.23-1.32,1.23h-7.83c-.73,0-1.11-.39-.89-1.23l14-51.4a1.46,1.46,0,0,1,1.44-1.23h6.16a1.46,1.46,0,0,1,1.44,1.23l14,51.4C267.3,81.57,267,81.95,266.28,81.95ZM252.84,62.47l-4.23-18.15-4.15,18.09Z"/><path class="cls-2" d="M310,63.26v4.15c0,9.55-4.88,14.54-15.44,14.54H275.31a1,1,0,0,1-1.11-.86,1.06,1.06,0,0,1,0-.29V29.26a1,1,0,0,1,.83-1.15.94.94,0,0,1,.28,0h19c9.53,0,13.89,4.23,13.89,15A14.49,14.49,0,0,1,305,52.71,12.8,12.8,0,0,1,310,63.26ZM294.29,37.17H283.94V49.4h10.35c3,0,4.15-.76,4.15-6.38C298.42,37.64,297.24,37.17,294.29,37.17Zm6,26.09c0-4.39-1.7-5.62-5.76-5.62H283.88V72.87h10.64c4,0,5.76-1.15,5.76-5.47Z"/><path class="cls-2" d="M350.68,81.95h-7.9c-.73,0-1.11-.39-1.32-1.23l-2.16-9.5H326.8l-2.22,9.47c-.22.84-.59,1.23-1.32,1.23h-7.83c-.73,0-1.11-.39-.89-1.23l14-51.4a1.46,1.46,0,0,1,1.44-1.23h6.28a1.46,1.46,0,0,1,1.44,1.23l14,51.4C351.72,81.57,351.41,81.95,350.68,81.95ZM337.22,62.47,333,44.38l-4.13,18.09Z"/><circle class="cls-3" cx="63.04" cy="55.02" r="53.89"/><g class="cls-4"><path class="cls-2" d="M83,49.62q-.25.84-.44,1.75h0c-.13.56-.27,1.1-.37,1.75-.42,2-.77,3.93-1,5.89,0,.6-.17,1.19-.2,1.75v.3a7.31,7.31,0,0,1-.1,1.49,58.37,58.37,0,0,1-8.42-3c.27-.46.52-.93.76-1.4V58c.29-.51.54-1,.79-1.56q1.3-2.66,2.34-5.45.33-.82.61-1.63a.26.26,0,0,1,0-.11c.19-.51.35-1,.49-1.56A46.54,46.54,0,0,0,83,49.62Z"/><path class="cls-2" d="M54.36,74.41V79.9l-.67.47-1.13.74c-.61.4-1.21.77-1.82,1.14a58.28,58.28,0,0,1-6.58,3.37l-.84.37-1.06.44c-.64.26-1.26.49-1.9.74q.25-1,.45-2.05A6,6,0,0,1,41,84a8.86,8.86,0,0,0,.15-1,45.57,45.57,0,0,0,.66-6.8V74.34a4.42,4.42,0,0,0,0-.67V72.45l.94-.51.71-.4c.56-.3,1.09-.61,1.68-1a47.11,47.11,0,0,0,5.37-4l.71-.6.83-.75a18.81,18.81,0,0,0,1.46-1.4q.19,1,.32,2.1A9.34,9.34,0,0,0,54,67.12l.1.93C54.26,70.15,54.34,72.22,54.36,74.41Z"/><path class="cls-2" d="M97.31,87.28c-.56.14-1.09.3-1.68.49h-.17L94,88.28a41.07,41.07,0,0,0-5.3,2.3l-1.36.74-.15.09q-.72.4-1.46.86-.35-.81-.67-1.63L85,90.42c-.19-.47-.35-.95-.54-1.44a55.34,55.34,0,0,1-1.8-5.8c-.15-.58-.29-1.17-.44-1.75l0-.44c-.1-.44-.19-.89-.27-1.33.39-.23.77-.44,1.18-.63l.39-.19L85,78.06a51.39,51.39,0,0,1,5.47-2.21q.71-.26,1.41-.49h.2l1.68-.51a8,8,0,0,0,.3,1.75.4.4,0,0,0,0,.14c.1.53.2,1,.34,1.56A48.39,48.39,0,0,0,96.13,84c.15.49.34,1,.54,1.47a.64.64,0,0,0,0,.16A13.3,13.3,0,0,0,97.31,87.28Z"/><path class="cls-2" d="M119.76,54.69c0,1.44,0,2.73-.12,4a1.75,1.75,0,0,1-1,1.51,57.68,57.68,0,0,1-21.89,4.47c-1.18,0-2.36,0-3.49-.11a8.86,8.86,0,0,1,.12-1.75h0A14.7,14.7,0,0,1,93.51,61a45,45,0,0,1,1-5.91c.1-.46.22-.91.34-1.35h0l.1-.37c.17-.58.34-1.16.51-1.75h1.11A45.61,45.61,0,0,0,117,46.73a1.62,1.62,0,0,1,1.55,0,1.76,1.76,0,0,1,.84,1.33A59.58,59.58,0,0,1,119.76,54.69Z"/><path class="cls-2" d="M66.48,40.67c-.15.61-.34,1.23-.51,1.75a1.88,1.88,0,0,1-.17.58c-.07.19-.25.79-.39,1.17a46.3,46.3,0,0,1-2.27,5.7c-.25.53-.51,1.05-.77,1.56a.84.84,0,0,1,0,.18c-.24.46-.49.91-.74,1.35A63.52,63.52,0,0,1,36.09,2.12V0a2,2,0,0,1,1-1.75,57.25,57.25,0,0,1,9.55-3.12,1.68,1.68,0,0,1,2,1.3,1.82,1.82,0,0,1,0,.45,47,47,0,0,0-.24,5.26A50.71,50.71,0,0,0,66.48,40.67Z"/><path class="cls-2" d="M41.88,74.32v1.93a45.57,45.57,0,0,1-.66,6.8,8.86,8.86,0,0,1-.15,1,4.83,4.83,0,0,1-.22,1.07q-.2,1-.45,2.05a57.54,57.54,0,0,1-19.82,3.61,59.53,59.53,0,0,1-8.2-.53,1.68,1.68,0,0,1-1.18-.75A61.76,61.76,0,0,1,5.48,78.3a1.81,1.81,0,0,1,.3-1.75A1.64,1.64,0,0,1,7.47,76a45.49,45.49,0,0,0,13,1.75,46.27,46.27,0,0,0,21.2-5.26v1.23A4.37,4.37,0,0,1,41.88,74.32Z"/><path class="cls-2" d="M72.43,59.44A62.36,62.36,0,0,1,54.14,79.9V74.41c0-2.12-.15-4.26-.35-6.4l-.1-.93a7,7,0,0,0-.15-1.17q-.13-1.07-.32-2.1a48.49,48.49,0,0,0,8.13-10.75l1.3.93h.1c.45.33.93.65,1.4.93a54.15,54.15,0,0,0,5.05,2.93q.76.42,1.52.77h.12Z"/><path class="cls-2" d="M77.55,47.57c-.15.53-.32,1.05-.49,1.56a.26.26,0,0,0,0,.11l-.61,1.63q-1,2.79-2.34,5.45c-.27.53-.52,1.05-.79,1.56V58c-.25.47-.51.95-.76,1.4l-1.43-.67H71q-.76-.37-1.52-.77a54.15,54.15,0,0,1-5.05-2.93c-.47-.3-.94-.61-1.4-.93h-.1l-1.3-.93a15,15,0,0,0,.74-1.35.84.84,0,0,0,0-.18c.29-.51.54-1,.77-1.56a46.3,46.3,0,0,0,2.27-5.7c.13-.39.27-.77.39-1.17s.12-.39.17-.58c.19-.6.37-1.21.51-1.75.47.4.94.79,1.43,1.14l.47.37c.32.25.64.49,1,.72a44.84,44.84,0,0,0,5.05,3.17l1.52.77h.19A14.51,14.51,0,0,1,77.55,47.57Z"/><path class="cls-2" d="M80.54,27.6a65,65,0,0,1-3,20q-.69-.28-1.36-.61H76l-1.52-.77A44.84,44.84,0,0,1,69.41,43c-.34-.23-.66-.47-1-.72L68,41.93c-.49-.37-1-.75-1.43-1.14A51.46,51.46,0,0,0,57.05-3.76a1.81,1.81,0,0,1-.24-1.75A1.69,1.69,0,0,1,58.3-6.67a57.06,57.06,0,0,1,12.07.81A1.69,1.69,0,0,1,71.52-5,64.39,64.39,0,0,1,80.54,27.6Z"/><path class="cls-2" d="M54.14,79.9a63.77,63.77,0,0,1-11.89,32.64,1.66,1.66,0,0,1-1.33.7,1.62,1.62,0,0,1-.57-.11,55,55,0,0,1-8.81-4.19,1.75,1.75,0,0,1-.81-1.21,1.81,1.81,0,0,1,.34-1.42,50.57,50.57,0,0,0,9.29-19.13c.64-.23,1.26-.46,1.9-.74L43.33,86l.84-.37a58.34,58.34,0,0,0,6.36-3.35c.61-.35,1.21-.72,1.82-1.14l1.13-.74Z"/><path class="cls-2" d="M53.42,63.82c-.47.47-1,.95-1.46,1.4l-.83.75-.71.6A47.06,47.06,0,0,1,45,70.47c-.54.33-1.08.65-1.68,1l-.71.4-.94.51c-1-20.31-13.77-38-32.24-44.58a1.72,1.72,0,0,1-1-1,1.82,1.82,0,0,1,.08-1.49,58.9,58.9,0,0,1,5.3-8.38,1.64,1.64,0,0,1,1.92-.54C35.44,24.19,49.73,42.21,53.42,63.82Z"/><path class="cls-2" d="M85.8,92.28a49.33,49.33,0,0,0-20,23.28,1.69,1.69,0,0,1-1.43,1.07c-1.16,0-2.34.12-3.55.12a58,58,0,0,1-6.48-.32,1.68,1.68,0,0,1-1.25-.82,1.82,1.82,0,0,1-.17-1.53A62.88,62.88,0,0,1,81.89,79.67c.08.44.17.89.27,1.33l.1.44c.13.6.27,1.19.44,1.75A55.31,55.31,0,0,0,84.57,89c.17.49.34,1,.54,1.44l.08.21A9.86,9.86,0,0,0,85.8,92.28Z"/><path class="cls-2" d="M116.56,75.13a61.29,61.29,0,0,1-4.06,9.59,1.67,1.67,0,0,1-1.58.91h-1.53a45.88,45.88,0,0,0-12,1.75c-.24-.54-.45-1.09-.67-1.65a.64.64,0,0,1,0-.16c-.19-.49-.37-1-.54-1.47a48.39,48.39,0,0,1-1.68-5.73c-.12-.53-.22-1-.34-1.56a.4.4,0,0,1,0-.14c-.12-.58-.22-1.17-.3-1.75a58,58,0,0,1,15.52-2.23,45.47,45.47,0,0,1,5.81.25,1.68,1.68,0,0,1,1.25.79A1.82,1.82,0,0,1,116.56,75.13Z"/><path class="cls-2" d="M102.3,98.76a57.23,57.23,0,0,1-7.17,6.35,1.64,1.64,0,0,1-1,.32,1.66,1.66,0,0,1-1.35-.68,63.52,63.52,0,0,1-7-12.45q.72-.46,1.46-.86l.15-.09,1.36-.74a41.07,41.07,0,0,1,5.3-2.3l1.45-.51h.17c.54-.18,1.08-.33,1.68-.49a48.48,48.48,0,0,0,5.15,9.2A1.81,1.81,0,0,1,102.3,98.76Z"/><path class="cls-2" d="M95.48,51.57c-.19.58-.35,1.16-.51,1.75l-.1.37h0A12.12,12.12,0,0,0,94.53,55a45,45,0,0,0-1,5.91c0,.58-.13,1.17-.17,1.75h0c0,.56-.1,1.14-.12,1.75a9,9,0,0,1-1.68-.11h0l-1.68-.16a53.34,53.34,0,0,1-5.72-.91l-1.68-.39h-.27l-1.38-.35a7.48,7.48,0,0,1,.1-1.49v-.3a15.53,15.53,0,0,1,.2-1.75c.24-2,.59-3.93,1-5.89.12-.56.25-1.1.37-1.75h0q.2-.84.44-1.75a13.94,13.94,0,0,0,1.68.46h0a15.91,15.91,0,0,0,1.68.39,42.16,42.16,0,0,0,5.74.88l1.31.11h.4Z"/><path class="cls-2" d="M93.74,74.82l-1.68.51h-.2q-.71.21-1.41.49A51.39,51.39,0,0,0,85,78l-1.58.77L83,79c-.4.19-.79.4-1.18.63a67.07,67.07,0,0,1-1.25-12.27c0-1.63,0-3.24.15-4.89l1.38.35h.27l1.68.39a53.34,53.34,0,0,0,5.72.91l1.68.16h0c.56,0,1.11.11,1.68.11v2.8A49.24,49.24,0,0,0,93.74,74.82Z"/><path class="cls-2" d="M111.91,27.43A50.12,50.12,0,0,0,95.48,51.57H93.39l-1.31-.11a42.19,42.19,0,0,1-5.83-1l-1.68-.39h0c-.54-.14-1.06-.3-1.68-.46a63.2,63.2,0,0,1,21.89-32.91,1.64,1.64,0,0,1,2.32.32,61.51,61.51,0,0,1,5.2,8.13A1.8,1.8,0,0,1,111.91,27.43Z"/></g></svg>