<svg id="Layer_1" data-name="Layer 1" xmlns="http://www.w3.org/2000/svg" viewBox="0 0 341.1 105.52"><defs><style>.cls-1{fill:#e5e5e5;}</style></defs><title>indaba-logo-white</title><path class="cls-1" d="M115.8,27.92h7.7a1,1,0,0,1,1.1.8v51.9a.94.94,0,0,1-.8,1.1h-8a1,1,0,0,1-1.1-.9V29a1.1,1.1,0,0,1,.8-1.2h0A.37.37,0,0,1,115.8,27.92Z"/><path class="cls-1" d="M170.5,29v51.5a.94.94,0,0,1-.8,1.1h-10a1.34,1.34,0,0,1-1.3-.8l-14.5-35.4v35.1a.94.94,0,0,1-.8,1.1h-7.8a1,1,0,0,1-1.1-.9V29a.94.94,0,0,1,.8-1.1h10a1.29,1.29,0,0,1,1.3.9l14.4,35.4V29a.94.94,0,0,1,.8-1.1h7.9a1,1,0,0,1,1.1.8Z"/><path class="cls-1" d="M215.4,42.92v23.7c0,9.1-4.6,15.2-14.6,15.2H181.2a1,1,0,0,1-1.1-.9V29a.94.94,0,0,1,.8-1.1h19.8C210.7,27.92,215.4,33.92,215.4,42.92Zm-9.8,0c0-4.7-1.4-6-4.9-6H189.9v35.8h10.9c3.4,0,4.9-1.2,4.9-6.1V42.92Z"/><path class="cls-1" d="M255.7,81.72h-7.9c-.7,0-1.1-.4-1.3-1.2L244.3,71H231.8l-2.2,9.5c-.2.8-.6,1.2-1.3,1.2h-7.8c-.7,0-1.1-.4-.9-1.2l14-51.4a1.4,1.4,0,0,1,1.4-1.2h6.2a1.4,1.4,0,0,1,1.4,1.2l14,51.4Q256.75,81.72,255.7,81.72Zm-13.5-19.5L238,44l-4.1,18.1Z"/><path class="cls-1" d="M299.4,63v4.2c0,9.6-4.9,14.5-15.4,14.5H264.8a1,1,0,0,1-1.1-.9V29a.94.94,0,0,1,.8-1.1h19.3c9.5,0,13.9,4.2,13.9,15a14.47,14.47,0,0,1-3.2,9.6A13.18,13.18,0,0,1,299.4,63Zm-15.7-26.1H273.3v12.2h10.4c3,0,4.1-.8,4.1-6.4C287.8,37.42,286.6,36.92,283.7,36.92Zm6,26.1c0-4.4-1.7-5.6-5.8-5.6H273.3v15.2h10.6c4,0,5.8-1.1,5.8-5.5Z"/><path class="cls-1" d="M340.1,81.72h-7.9c-.7,0-1.1-.4-1.3-1.2L328.7,71H316.2l-2.2,9.5c-.2.8-.6,1.2-1.3,1.2h-7.8c-.7,0-1.1-.4-.9-1.2l14-51.4a1.4,1.4,0,0,1,1.4-1.2h6.3a1.4,1.4,0,0,1,1.4,1.2l14,51.4C341.1,81.32,340.8,81.72,340.1,81.72Zm-13.5-19.5-4.2-18.1-4.1,18.1Z"/><path class="cls-1" d="M66.3,48.22c-.1.5-.3,1-.4,1.5h0c-.1.5-.2.9-.3,1.5a48,48,0,0,0-.9,5,7.72,7.72,0,0,1-.2,1.5v.2a5.7,5.7,0,0,1-.1,1.3,44.06,44.06,0,0,1-7.2-2.6,7.46,7.46,0,0,1,.7-1.2v-.1c.2-.4.5-.9.7-1.3.7-1.5,1.4-3.1,2-4.7a7.84,7.84,0,0,0,.5-1.4v-.1a6.47,6.47,0,0,0,.4-1.3C63.1,47.12,64.7,47.72,66.3,48.22Z"/><path class="cls-1" d="M41.8,69.42v4.7l-.6.4-1,.6c-.5.3-1,.7-1.5,1A59.33,59.33,0,0,1,33.1,79l-.7.3-.9.4c-.6.2-1.1.4-1.6.6.1-.6.3-1.2.4-1.8a2.92,2.92,0,0,1,.2-.9,2.2,2.2,0,0,0,.1-.8,57,57,0,0,0,.6-5.8v-3.3l.8-.4.6-.3a10,10,0,0,0,1.4-.8,49.55,49.55,0,0,0,4.6-3.4l.6-.5.7-.6a13.58,13.58,0,0,0,1.2-1.2l.3,1.8c0,.3.1.7.1,1l.1.8C41.7,65.72,41.8,67.52,41.8,69.42Z"/><path class="cls-1" d="M78.5,80.42a7.37,7.37,0,0,0-1.4.4H77l-1.2.4a30.66,30.66,0,0,0-4.5,2l-1.2.6-.1.1c-.4.2-.8.5-1.2.7-.2-.5-.4-.9-.6-1.4l-.1-.2c-.2-.4-.3-.8-.5-1.2a41.27,41.27,0,0,1-1.5-5,8.33,8.33,0,0,0-.4-1.5V75a5.16,5.16,0,0,1-.2-1.1,4.67,4.67,0,0,1,1-.5l.3-.2,1.3-.6a38.47,38.47,0,0,1,4.7-1.9l1.2-.4h.2l1.4-.4a4,4,0,0,0,.3,1.5v.1c.1.4.2.9.3,1.3.4,1.7.9,3.3,1.4,4.9a11.22,11.22,0,0,0,.5,1.3v.1A9.29,9.29,0,0,0,78.5,80.42Z"/><path class="cls-1" d="M97.7,52.52c0,1.2,0,2.3-.1,3.4a1.42,1.42,0,0,1-.9,1.3A48.09,48.09,0,0,1,78,61c-1,0-2,0-3-.1a7.57,7.57,0,0,1,.1-1.5h0c0-.5.1-1,.1-1.5a40.14,40.14,0,0,1,.9-5l.3-1.2h0l.1-.3.4-1.5h.9a39.14,39.14,0,0,0,17.4-4.2,1.48,1.48,0,0,1,1.3,0,1.36,1.36,0,0,1,.7,1.1A28.07,28.07,0,0,1,97.7,52.52Z"/><path class="cls-1" d="M52.2,40.52c-.1.5-.3,1-.4,1.5,0,.2-.1.3-.1.5s-.2.7-.3,1a41.4,41.4,0,0,1-1.9,4.9,8.27,8.27,0,0,1-.7,1.3v.2a10.91,10.91,0,0,1-.6,1.1A54.14,54.14,0,0,1,26.3,7.52V5.72a1.65,1.65,0,0,1,.9-1.5,56.23,56.23,0,0,1,8.2-2.7,1.39,1.39,0,0,1,1.7,1.1h0V3a33.89,33.89,0,0,0-.2,4.5A42.92,42.92,0,0,0,52.2,40.52Z"/><path class="cls-1" d="M31.2,69.32V71a28.56,28.56,0,0,1-.6,5.8c0,.3-.1.5-.1.8a2.92,2.92,0,0,1-.2.9,11.63,11.63,0,0,1-.4,1.8A49.06,49.06,0,0,1,13,83.42a41.22,41.22,0,0,1-7-.5,1.7,1.7,0,0,1-1-.6,48.23,48.23,0,0,1-4.9-9.6,1.4,1.4,0,0,1,.3-1.5,1.28,1.28,0,0,1,1.4-.4,41.83,41.83,0,0,0,11.1,1.5A39.43,39.43,0,0,0,31,67.82v1C31.1,68.92,31.1,69.12,31.2,69.32Z"/><path class="cls-1" d="M57.3,56.62a53.43,53.43,0,0,1-15.6,17.5v-4.7a52.08,52.08,0,0,0-.3-5.5l-.1-.8c0-.3-.1-.7-.1-1l-.3-1.8a39.29,39.29,0,0,0,7-9.2l1.1.8h.1a8.34,8.34,0,0,0,1.2.8c1.4.9,2.8,1.7,4.3,2.5.4.2.9.5,1.3.7H56Z"/><path class="cls-1" d="M61.6,46.42c-.1.4-.3.9-.4,1.3v.1l-.5,1.4c-.6,1.6-1.3,3.1-2,4.7a8.27,8.27,0,0,1-.7,1.3v.1l-.6,1.2-1.2-.6h-.1l-1.3-.7c-1.5-.8-2.9-1.6-4.3-2.5a8.34,8.34,0,0,1-1.2-.8h-.1l-1.1-.8.6-1.2v-.1c.2-.4.5-.9.7-1.3a29.21,29.21,0,0,0,1.9-4.9c.1-.3.2-.7.3-1a1.09,1.09,0,0,0,.1-.5,8.33,8.33,0,0,0,.4-1.5c.4.3.8.7,1.2,1l.4.3a5.55,5.55,0,0,1,.8.6,38.65,38.65,0,0,0,4.3,2.7l1.3.7h.2A11.21,11.21,0,0,0,61.6,46.42Z"/><path class="cls-1" d="M64.2,29.32a55.45,55.45,0,0,1-2.6,17.1c-.4-.2-.8-.3-1.2-.5h-.2l-1.3-.7a38.65,38.65,0,0,1-4.3-2.7,5.55,5.55,0,0,1-.8-.6l-.4-.3a10.59,10.59,0,0,1-1.2-1,43.87,43.87,0,0,0-8.1-38.1A1.6,1.6,0,0,1,43.9,1a1.38,1.38,0,0,1,1.3-1,50.51,50.51,0,0,1,10.3.7,1.45,1.45,0,0,1,1,.7A55,55,0,0,1,64.2,29.32Z"/><path class="cls-1" d="M41.6,74a54.17,54.17,0,0,1-10.2,27.9,2.38,2.38,0,0,1-1.1.6.9.9,0,0,1-.5-.1,51.68,51.68,0,0,1-7.5-3.6,1.45,1.45,0,0,1-.7-1,1.31,1.31,0,0,1,.3-1.2,41.67,41.67,0,0,0,7.9-16.4c.6-.2,1.1-.4,1.6-.6l.9-.4.7-.3A35,35,0,0,0,38.4,76a13,13,0,0,0,1.5-1l1-.6Z"/><path class="cls-1" d="M41,60.32l-1.2,1.2-.7.6-.6.5a38.33,38.33,0,0,1-4.6,3.3,10,10,0,0,1-1.4.8l-.6.3-.8.4C30.2,50.12,19.3,35,3.5,29.32a2,2,0,0,1-.9-.9,1.5,1.5,0,0,1,.1-1.3,54.06,54.06,0,0,1,4.5-7.2,1.47,1.47,0,0,1,1.6-.5A53.66,53.66,0,0,1,41,60.32Z"/><path class="cls-1" d="M68.7,84.62a42,42,0,0,0-17.1,19.9,1.4,1.4,0,0,1-1.2.9c-1,0-2,.1-3,.1a49.33,49.33,0,0,1-5.5-.3,1.9,1.9,0,0,1-1.1-.7,1.5,1.5,0,0,1-.1-1.3,53.45,53.45,0,0,1,24.7-29.4c.1.4.1.8.2,1.1l.1.4a8.33,8.33,0,0,0,.4,1.5,41.62,41.62,0,0,0,1.6,5,6.12,6.12,0,0,0,.5,1.2l.1.2A3.26,3.26,0,0,0,68.7,84.62Z"/><path class="cls-1" d="M95,70a49.32,49.32,0,0,1-3.5,8.2,1.56,1.56,0,0,1-1.3.8H88.9a36.16,36.16,0,0,0-10.3,1.5c-.2-.5-.4-.9-.6-1.4V79c-.2-.4-.3-.8-.5-1.3a27.46,27.46,0,0,1-1.4-4.9c-.1-.4-.2-.9-.3-1.3v-.1l-.3-1.5A49.7,49.7,0,0,1,88.8,68a41.8,41.8,0,0,1,5,.2,1.51,1.51,0,0,1,1.1.7A1.33,1.33,0,0,1,95,70Z"/><path class="cls-1" d="M82.8,90.22a44.49,44.49,0,0,1-6.1,5.4,1.14,1.14,0,0,1-.8.3,1.43,1.43,0,0,1-1.2-.6,55.53,55.53,0,0,1-6-10.6,7.46,7.46,0,0,1,1.2-.7l.1-.1,1.2-.6a44.26,44.26,0,0,1,4.5-2l1.2-.4H77c.5-.1.9-.3,1.4-.4a46.88,46.88,0,0,0,4.4,7.9C83.4,88.82,83.3,89.62,82.8,90.22Z"/><path class="cls-1" d="M77,49.82a8.33,8.33,0,0,0-.4,1.5l-.1.3h0c-.1.4-.2.8-.3,1.1a40.14,40.14,0,0,0-.9,5c0,.5-.1,1-.1,1.5h0c0,.5-.1,1-.1,1.5a6.15,6.15,0,0,1-1.4-.1h0l-1.4-.1a41.66,41.66,0,0,1-4.9-.8l-1.4-.3h-.4l-1.2-.3a5.7,5.7,0,0,1,.1-1.3v-.2a7.72,7.72,0,0,1,.2-1.5,40.14,40.14,0,0,1,.9-5c.1-.5.2-.9.3-1.5h0a8.33,8.33,0,0,1,.4-1.5,10.26,10.26,0,0,0,1.4.4h0c.5.1,1,.2,1.4.3a41.66,41.66,0,0,0,4.9.8l1.1.1h.3Z"/><path class="cls-1" d="M75.5,69.72l-1.4.4h-.2c-.4.1-.8.3-1.2.4a38.47,38.47,0,0,0-4.7,1.9l-1.3.7-.3.2c-.3.2-.7.3-1,.5a62.37,62.37,0,0,1-1.1-10.5c0-1.4,0-2.8.1-4.2l1.2.3h.2l1.4.3c1.6.3,3.2.6,4.9.8l1.4.1h0c.5,0,.9.1,1.4.1v2.4Q75.05,66.42,75.5,69.72Z"/><path class="cls-1" d="M91,29.22a42.58,42.58,0,0,0-14,20.6H75.2l-1.1-.1a40.11,40.11,0,0,1-5-.8l-1.4-.3h0l-1.4-.4A54,54,0,0,1,85,20.12a1.43,1.43,0,0,1,2,.2h0a43.11,43.11,0,0,1,4.4,7A1.54,1.54,0,0,1,91,29.22Z"/></svg>