<svg xmlns="http://www.w3.org/2000/svg" viewBox="0 0 231.36 70.4"><defs><style>.cls-1{fill:#429664;}.cls-2{fill:#17a84e;}</style></defs><title>Artboard 29</title><g id="Layer_1" data-name="Layer 1"><path class="cls-1" d="M74.87,17.22h5.34A.68.68,0,0,1,81,18v34.4a.68.68,0,0,1-.77.77H74.87a.68.68,0,0,1-.77-.77V18A.68.68,0,0,1,74.87,17.22Z"/><path class="cls-1" d="M112.92,18v34.4a.68.68,0,0,1-.77.77h-6.73a.94.94,0,0,1-.92-.56L94.43,28.93V52.39a.68.68,0,0,1-.77.77H88.43a.68.68,0,0,1-.77-.77V18a.68.68,0,0,1,.77-.77H95.2a.94.94,0,0,1,.92.57l10,23.62V18a.68.68,0,0,1,.77-.77h5.24A.68.68,0,0,1,112.92,18Z"/><path class="cls-1" d="M144.09,27.23V43c0,6.06-3.23,10.12-10.17,10.12H120.37a.68.68,0,0,1-.77-.77V18a.68.68,0,0,1,.77-.77h13.56C140.85,17.22,144.09,21.23,144.09,27.23Zm-6.78,0c0-3.13-1-4-3.39-4h-7.55V47.1h7.55c2.36,0,3.39-.82,3.39-4.06Z"/><path class="cls-1" d="M172.08,53.16h-5.49c-.51,0-.77-.26-.92-.82L164.17,46h-8.68L154,52.34c-.15.56-.41.82-.92.82h-5.44c-.51,0-.77-.26-.62-.82l9.7-34.3a1,1,0,0,1,1-.82H162a1,1,0,0,1,1,.82l9.7,34.3C172.79,52.91,172.59,53.16,172.08,53.16Zm-9.34-13L159.8,28.05l-2.88,12.07Z"/><path class="cls-1" d="M202.48,40.69v2.77c0,6.37-3.39,9.7-10.73,9.7h-13.4a.68.68,0,0,1-.77-.77V18a.68.68,0,0,1,.77-.77h13.2c6.62,0,9.65,2.82,9.65,10A9.42,9.42,0,0,1,199,33.65,8.42,8.42,0,0,1,202.48,40.69ZM191.54,23.28h-7.19v8.16h7.19c2.05,0,2.88-.51,2.88-4.26C194.41,23.59,193.59,23.28,191.54,23.28Zm4.16,17.41c0-2.93-1.18-3.75-4-3.75h-7.39V47.1h7.39c2.77,0,4-.77,4-3.65Z"/><path class="cls-1" d="M230.72,53.16h-5.49c-.51,0-.77-.26-.92-.82L222.81,46h-8.68l-1.54,6.32c-.15.56-.41.82-.92.82h-5.44c-.51,0-.77-.26-.62-.82l9.7-34.3a1,1,0,0,1,1-.82h4.36a1,1,0,0,1,1,.82l9.71,34.3C231.44,52.91,231.23,53.16,230.72,53.16Zm-9.35-13-2.93-12.07-2.87,12.07Z"/><path class="cls-1" d="M46.07,32.11q-.15.48-.26,1v0c-.08.32-.16.63-.22,1-.25,1.12-.46,2.24-.6,3.36,0,.34-.1.68-.12,1,0,.06,0,.11,0,.17,0,.29,0,.57-.06.85a35.61,35.61,0,0,1-5-1.73c.16-.26.31-.53.45-.8,0,0,0-.05,0-.08.17-.29.32-.59.47-.89a33.85,33.85,0,0,0,1.39-3.11c.13-.31.25-.62.36-.93a.14.14,0,0,1,0-.06c.11-.29.21-.59.29-.89A28.41,28.41,0,0,0,46.07,32.11Z"/><path class="cls-1" d="M67.9,35c0,.82,0,1.56-.07,2.26a1,1,0,0,1-.62.86,35.48,35.48,0,0,1-13,2.55c-.7,0-1.4,0-2.07-.06,0-.33,0-.66.07-1h0c0-.34.06-.68.1-1a24.77,24.77,0,0,1,.62-3.37c.06-.26.13-.52.2-.77h0l.06-.21c.1-.33.2-.66.3-1h.66a28,28,0,0,0,12.09-2.8,1,1,0,0,1,.92,0,1,1,0,0,1,.5.76A32.66,32.66,0,0,1,67.9,35Z"/><path class="cls-1" d="M36.26,27c-.09.35-.2.7-.3,1,0,.11-.06.22-.1.33s-.15.45-.23.67a25.81,25.81,0,0,1-1.35,3.25c-.15.3-.3.6-.46.89a.46.46,0,0,1,0,.1c-.14.26-.29.52-.44.77a35.78,35.78,0,0,1-15.17-29c0-.41,0-.82,0-1.23a1.13,1.13,0,0,1,.6-1A35,35,0,0,1,24.48,1,1,1,0,0,1,25.71,2a25.78,25.78,0,0,0-.14,3A28.48,28.48,0,0,0,36.26,27Z"/><path class="cls-1" d="M21.65,46.2v.1c0,.34,0,.67,0,1a25,25,0,0,1-.39,3.88,4.87,4.87,0,0,1-.09.55c0,.2-.08.41-.13.61-.08.39-.17.78-.27,1.17A35.43,35.43,0,0,1,9,55.57a36.79,36.79,0,0,1-4.87-.3,1,1,0,0,1-.7-.43,34.73,34.73,0,0,1-3.4-6.37,1,1,0,0,1,.18-1,1,1,0,0,1,1-.3,28.06,28.06,0,0,0,7.74,1,28.39,28.39,0,0,0,12.59-3c0,.23,0,.47,0,.7A2.42,2.42,0,0,1,21.65,46.2Z"/><path class="cls-1" d="M39.79,37.71A36.1,36.1,0,0,1,28.93,49.38c0-.16,0-.33,0-.49s0-.53,0-.79c0-.41,0-.83,0-1.25,0-.2,0-.4,0-.6,0-1.21-.09-2.43-.21-3.65l-.06-.53c0-.22-.05-.45-.09-.67q-.08-.61-.19-1.2a27.8,27.8,0,0,0,4.83-6.13l.77.53.06,0c.27.19.55.37.83.53a32.51,32.51,0,0,0,3,1.67q.45.24.9.44l.07,0Z"/><path class="cls-2" d="M42.83,30.94c-.09.3-.19.6-.29.89a.14.14,0,0,0,0,.06c-.12.31-.24.62-.36.93a33.85,33.85,0,0,1-1.39,3.11c-.16.3-.31.6-.47.89,0,0,0,0,0,.08-.15.27-.3.54-.45.8l-.85-.38-.07,0q-.45-.21-.9-.44a32.51,32.51,0,0,1-3-1.67c-.28-.17-.56-.35-.83-.53l-.06,0-.77-.53c.16-.25.31-.51.44-.77a.46.46,0,0,0,0-.1c.17-.29.32-.59.46-.89a25.81,25.81,0,0,0,1.35-3.25c.08-.22.16-.44.23-.67s.07-.22.1-.33c.11-.34.22-.69.3-1,.28.23.56.45.85.65l.28.21c.19.14.38.28.58.41a26.82,26.82,0,0,0,3,1.81l.9.44.11,0Q42.42,30.78,42.83,30.94Z"/><path class="cls-2" d="M29.06,46.25c0,.2,0,.4,0,.6,0,.42,0,.84,0,1.25,0,.26,0,.53,0,.79s0,.33,0,.49l-.4.27-.67.42c-.36.23-.72.44-1.08.65A35.17,35.17,0,0,1,23,52.64l-.5.21-.63.25c-.38.15-.75.28-1.13.42.1-.39.19-.78.27-1.17,0-.2.09-.41.13-.61a4.87,4.87,0,0,0,.09-.55,25,25,0,0,0,.39-3.88c0-.34,0-.67,0-1v-.1a2.42,2.42,0,0,0,0-.38c0-.23,0-.47,0-.7l.56-.29.42-.23c.33-.17.65-.35,1-.55a27.94,27.94,0,0,0,3.19-2.27l.42-.34.49-.43c.3-.25.6-.52.87-.8q.11.58.19,1.2c0,.22.06.45.09.67l.06.53C29,43.82,29.05,45,29.06,46.25Z"/><path class="cls-1" d="M44.61,19.55a35.71,35.71,0,0,1-1.79,11.39q-.41-.16-.81-.35l-.11,0-.9-.44a26.82,26.82,0,0,1-3-1.81c-.2-.13-.39-.27-.58-.41l-.28-.21c-.29-.21-.57-.43-.85-.65a28,28,0,0,0,.94-7.42A28.43,28.43,0,0,0,30.66,1.66a1,1,0,0,1-.14-1A1,1,0,0,1,31.4,0a35.26,35.26,0,0,1,7.17.46,1,1,0,0,1,.68.47A35.64,35.64,0,0,1,44.61,19.55Z"/><path class="cls-1" d="M28.93,49.38A35.5,35.5,0,0,1,21.87,68a1,1,0,0,1-.79.4,1,1,0,0,1-.34-.06,33.28,33.28,0,0,1-5.23-2.39,1,1,0,0,1-.48-.69,1,1,0,0,1,.2-.81,28.39,28.39,0,0,0,5.52-10.91c.38-.13.75-.26,1.13-.42l.63-.25.5-.21a35.17,35.17,0,0,0,3.78-1.91c.36-.2.72-.41,1.08-.65l.67-.42Z"/><path class="cls-1" d="M28.5,40.21c-.28.27-.58.54-.87.8l-.49.43-.42.34A27.94,27.94,0,0,1,23.53,44c-.32.19-.64.37-1,.55l-.42.23-.56.29A28.46,28.46,0,0,0,2.4,19.64a1,1,0,0,1-.6-.59,1,1,0,0,1,.05-.85A33.44,33.44,0,0,1,5,13.42a1,1,0,0,1,1.14-.31A35.74,35.74,0,0,1,28.5,40.21Z"/><path class="cls-1" d="M47.73,56.44A28.49,28.49,0,0,0,35.87,69.72a1,1,0,0,1-.85.61c-.69,0-1.39.07-2.11.07a35.86,35.86,0,0,1-3.85-.18,1,1,0,0,1-.74-.47,1,1,0,0,1-.1-.87A36.28,36.28,0,0,1,45.41,49.25c.05.25.1.51.16.76l.06.25c.08.34.16.68.26,1A30.66,30.66,0,0,0,47,54.58c.1.28.2.55.32.82l.05.12Q47.51,56,47.73,56.44Z"/><path class="cls-1" d="M66,46.66a34.23,34.23,0,0,1-2.41,5.47,1,1,0,0,1-.94.52c-.3,0-.6,0-.91,0a28.29,28.29,0,0,0-7.15,1c-.14-.31-.27-.62-.4-.94a.35.35,0,0,1,0-.09c-.11-.28-.22-.56-.32-.84a26.78,26.78,0,0,1-1-3.27c-.07-.3-.13-.59-.2-.89a.22.22,0,0,1,0-.08c-.07-.33-.13-.67-.18-1a35.75,35.75,0,0,1,9.22-1.27c1.17,0,2.32,0,3.45.14a1,1,0,0,1,.74.45A1,1,0,0,1,66,46.66Z"/><path class="cls-2" d="M54.57,53.59c-.33.08-.65.17-1,.28l-.1,0-.86.29a24.93,24.93,0,0,0-3.15,1.31l-.81.42-.09.05q-.43.23-.87.49-.21-.46-.4-.93l-.05-.12c-.11-.27-.21-.54-.32-.82a30.66,30.66,0,0,1-1.07-3.31c-.09-.33-.17-.67-.26-1L45.57,50c-.06-.25-.11-.51-.16-.76.23-.13.46-.25.7-.36l.23-.11.94-.44a31.26,31.26,0,0,1,3.25-1.26q.42-.15.84-.28l.12,0,1-.29c0,.33.1.67.18,1a.22.22,0,0,0,0,.08c.06.3.12.59.2.89a26.78,26.78,0,0,0,1,3.27c.09.28.2.56.32.84a.35.35,0,0,0,0,.09C54.29,53,54.43,53.28,54.57,53.59Z"/><path class="cls-1" d="M57.53,60.14a33.6,33.6,0,0,1-4.26,3.62,1,1,0,0,1-.58.18,1,1,0,0,1-.8-.39,35.87,35.87,0,0,1-4.17-7.1q.43-.26.87-.49l.09-.05.81-.42a24.93,24.93,0,0,1,3.15-1.31l.86-.29.1,0c.32-.1.64-.19,1-.28a27.37,27.37,0,0,0,3.06,5.25A1,1,0,0,1,57.53,60.14Z"/><path class="cls-2" d="M53.48,33.22c-.11.33-.21.66-.3,1l-.06.21h0c-.08.25-.15.51-.2.77a24.77,24.77,0,0,0-.62,3.37c0,.33-.08.67-.1,1h0c0,.32-.06.65-.07,1-.34,0-.67,0-1-.06h0l-1-.09a32.89,32.89,0,0,1-3.4-.52l-1-.22-.16,0-.82-.2c0-.28,0-.56.06-.85,0-.06,0-.11,0-.17,0-.33.08-.67.12-1,.14-1.12.35-2.24.6-3.36.07-.32.15-.63.22-1v0q.12-.48.26-1c.32.1.63.19,1,.26h0c.32.09.65.16,1,.22a26,26,0,0,0,3.41.5l.78.06.24,0Z"/><path class="cls-1" d="M52.45,46.48l-1,.29-.12,0q-.42.12-.84.28a31.26,31.26,0,0,0-3.25,1.26l-.94.44-.23.11c-.24.11-.47.23-.7.36a36.8,36.8,0,0,1-.74-7c0-.93,0-1.85.09-2.79l.82.2.16,0,1,.22a32.89,32.89,0,0,0,3.4.52l1,.09h0c.33,0,.66.06,1,.06,0,.52,0,1.06,0,1.6A27,27,0,0,0,52.45,46.48Z"/><path class="cls-1" d="M63.24,19.45a28.58,28.58,0,0,0-9.76,13.77l-1,0-.24,0-.78-.06A26,26,0,0,1,48,32.6c-.33-.07-.66-.14-1-.22h0c-.32-.08-.63-.17-1-.26A36,36,0,0,1,59,13.35a1,1,0,0,1,1.38.18,34.94,34.94,0,0,1,3.09,4.64A1,1,0,0,1,63.24,19.45Z"/></g></svg>